<svg xmlns="http://www.w3.org/2000/svg" xmlns:xlink="http://www.w3.org/1999/xlink" width="20" height="20" viewBox="0 0 20 20">
  <defs>
    <clipPath id="clip-iPhone_12_12_Pro_1">
      <rect width="20" height="20"/>
    </clipPath>
  </defs>
  <g id="iPhone_12_12_Pro_1" data-name="iPhone 12, 12 Pro – 1" clip-path="url(#clip-iPhone_12_12_Pro_1)">
    <g id="Add_To_Card_Icon" data-name="Add To Card Icon" transform="translate(1.991 2.5)">
      <g id="Buy">
        <path id="Combined_Shape" data-name="Combined Shape" d="M12.617,15.2A1.079,1.079,0,1,1,13.7,16.284,1.08,1.08,0,0,1,12.617,15.2Zm-9.4,0A1.079,1.079,0,1,1,4.3,16.284,1.08,1.08,0,0,1,3.217,15.2Zm10.534-2.717h-9.1a2.136,2.136,0,0,1-2.116-1.953L1.775,1.457.519,1.24A.629.629,0,0,1,.009.517.628.628,0,0,1,.631,0a.641.641,0,0,1,.1.008l1.734.3a.625.625,0,0,1,.515.564l.2,2.334c11.891.005,11.935.01,11.993.017A1.744,1.744,0,0,1,16.649,5.2l-.791,5.465a2.136,2.136,0,0,1-2.1,1.825ZM3.784,10.433a.869.869,0,0,0,.872.8h9.1a.881.881,0,0,0,.868-.752l.792-5.466a.489.489,0,0,0-.094-.365.484.484,0,0,0-.323-.193c-.04,0-.465,0-1.3,0l-5.642,0-4.775,0Zm6.321-2.9a.625.625,0,0,1,0-1.25h2.31a.625.625,0,0,1,0,1.25Z" transform="translate(0)" fill="#fff"/>
      </g>
    </g>
  </g>
</svg>
